<svg width="37" height="18" viewBox="0 0 37 18" fill="none" xmlns="http://www.w3.org/2000/svg">
    <rect x="0.5" y="1" width="36" height="16" rx="7.5" stroke="#808085"/>
    <path d="M9.4223 12.65C8.90564 12.65 8.43897 12.5617 8.0223 12.385C7.60897 12.205 7.2673 11.95 6.9973 11.62C6.73064 11.2867 6.5573 10.8917 6.4773 10.435L7.5673 10.27C7.6773 10.71 7.9073 11.0533 8.2573 11.3C8.6073 11.5433 9.01564 11.665 9.4823 11.665C9.7723 11.665 10.039 11.62 10.2823 11.53C10.5256 11.4367 10.7206 11.305 10.8673 11.135C11.0173 10.9617 11.0923 10.755 11.0923 10.515C11.0923 10.385 11.069 10.27 11.0223 10.17C10.979 10.07 10.9173 9.98333 10.8373 9.91C10.7606 9.83333 10.6656 9.76833 10.5523 9.715C10.4423 9.65833 10.3206 9.61 10.1873 9.57L8.3423 9.025C8.1623 8.97167 7.97897 8.90333 7.7923 8.82C7.60564 8.73333 7.43397 8.62167 7.2773 8.485C7.12397 8.345 6.99897 8.17333 6.9023 7.97C6.80564 7.76333 6.7573 7.51333 6.7573 7.22C6.7573 6.77667 6.87064 6.40167 7.0973 6.095C7.3273 5.785 7.6373 5.55167 8.0273 5.395C8.4173 5.235 8.85397 5.155 9.3373 5.155C9.82397 5.16167 10.259 5.24833 10.6423 5.415C11.029 5.58167 11.349 5.82167 11.6023 6.135C11.859 6.445 12.0356 6.82167 12.1323 7.265L11.0123 7.455C10.9623 7.185 10.8556 6.95333 10.6923 6.76C10.529 6.56333 10.329 6.41333 10.0923 6.31C9.85564 6.20333 9.59897 6.14833 9.3223 6.145C9.05564 6.13833 8.81064 6.17833 8.5873 6.265C8.3673 6.35167 8.19064 6.47333 8.0573 6.63C7.9273 6.78667 7.8623 6.96667 7.8623 7.17C7.8623 7.37 7.92064 7.53167 8.0373 7.655C8.15397 7.77833 8.2973 7.87667 8.4673 7.95C8.64064 8.02 8.8123 8.07833 8.9823 8.125L10.3123 8.5C10.479 8.54667 10.6673 8.61 10.8773 8.69C11.0906 8.76667 11.2956 8.875 11.4923 9.015C11.6923 9.155 11.8573 9.34167 11.9873 9.575C12.1173 9.805 12.1823 10.095 12.1823 10.445C12.1823 10.8083 12.109 11.1283 11.9623 11.405C11.8156 11.6783 11.614 11.9083 11.3573 12.095C11.104 12.2783 10.8106 12.4167 10.4773 12.51C10.144 12.6033 9.7923 12.65 9.4223 12.65ZM15.5929 12.65C15.0529 12.65 14.5845 12.5283 14.1879 12.285C13.7912 12.0417 13.4845 11.7067 13.2679 11.28C13.0545 10.85 12.9479 10.355 12.9479 9.795C12.9479 9.23167 13.0579 8.73667 13.2779 8.31C13.4979 7.88 13.8062 7.54667 14.2029 7.31C14.5995 7.07 15.0629 6.95 15.5929 6.95C16.1329 6.95 16.6012 7.07167 16.9979 7.315C17.3945 7.55833 17.7012 7.89333 17.9179 8.32C18.1345 8.74667 18.2429 9.23833 18.2429 9.795C18.2429 10.3583 18.1329 10.855 17.9129 11.285C17.6962 11.7117 17.3895 12.0467 16.9929 12.29C16.5962 12.53 16.1295 12.65 15.5929 12.65ZM15.5929 11.665C16.1095 11.665 16.4945 11.4917 16.7479 11.145C17.0045 10.795 17.1329 10.345 17.1329 9.795C17.1329 9.23167 17.0029 8.78167 16.7429 8.445C16.4862 8.105 16.1029 7.935 15.5929 7.935C15.2429 7.935 14.9545 8.015 14.7279 8.175C14.5012 8.33167 14.3329 8.55 14.2229 8.83C14.1129 9.10667 14.0579 9.42833 14.0579 9.795C14.0579 10.3617 14.1879 10.815 14.4479 11.155C14.7079 11.495 15.0895 11.665 15.5929 11.665ZM21.6866 12.65C21.1466 12.65 20.6783 12.5283 20.2816 12.285C19.8849 12.0417 19.5783 11.7067 19.3616 11.28C19.1483 10.85 19.0416 10.355 19.0416 9.795C19.0416 9.23167 19.1516 8.73667 19.3716 8.31C19.5916 7.88 19.8999 7.54667 20.2966 7.31C20.6933 7.07 21.1566 6.95 21.6866 6.95C22.2266 6.95 22.6949 7.07167 23.0916 7.315C23.4883 7.55833 23.7949 7.89333 24.0116 8.32C24.2283 8.74667 24.3366 9.23833 24.3366 9.795C24.3366 10.3583 24.2266 10.855 24.0066 11.285C23.7899 11.7117 23.4833 12.0467 23.0866 12.29C22.6899 12.53 22.2233 12.65 21.6866 12.65ZM21.6866 11.665C22.2033 11.665 22.5883 11.4917 22.8416 11.145C23.0983 10.795 23.2266 10.345 23.2266 9.795C23.2266 9.23167 23.0966 8.78167 22.8366 8.445C22.5799 8.105 22.1966 7.935 21.6866 7.935C21.3366 7.935 21.0483 8.015 20.8216 8.175C20.5949 8.33167 20.4266 8.55 20.3166 8.83C20.2066 9.10667 20.1516 9.42833 20.1516 9.795C20.1516 10.3617 20.2816 10.815 20.5416 11.155C20.8016 11.495 21.1833 11.665 21.6866 11.665ZM29.2254 12.5L29.2254 9.845C29.2254 9.635 29.207 9.42 29.1704 9.2C29.137 8.97667 29.0704 8.77 28.9704 8.58C28.8737 8.39 28.7354 8.23667 28.5554 8.12C28.3787 8.00333 28.147 7.945 27.8604 7.945C27.6737 7.945 27.497 7.97667 27.3304 8.04C27.1637 8.1 27.017 8.19833 26.8904 8.335C26.767 8.47167 26.6687 8.65167 26.5954 8.875C26.5254 9.09833 26.4904 9.37 26.4904 9.69L25.8404 9.445C25.8404 8.955 25.932 8.52333 26.1154 8.15C26.2987 7.77333 26.562 7.48 26.9054 7.27C27.2487 7.06 27.6637 6.955 28.1504 6.955C28.5237 6.955 28.837 7.015 29.0904 7.135C29.3437 7.255 29.5487 7.41333 29.7054 7.61C29.8654 7.80333 29.987 8.015 30.0704 8.245C30.1537 8.475 30.2104 8.7 30.2404 8.92C30.2704 9.14 30.2854 9.33333 30.2854 9.5L30.2854 12.5L29.2254 12.5ZM25.4304 12.5L25.4304 7.1L26.3654 7.1V8.66H26.4904L26.4904 12.5L25.4304 12.5Z" fill="#808085"/>
</svg>
