<svg width="32" height="32" viewBox="0 0 32 32" fill="none" xmlns="http://www.w3.org/2000/svg">
<g clip-path="url(#clip0_387_6720)">
<path d="M16 32C24.8366 32 32 24.8366 32 16C32 7.16344 24.8366 0 16 0C7.16344 0 0 7.16344 0 16C0 24.8366 7.16344 32 16 32Z" fill="#9391F7"/>
<path d="M13.0255 16.7804C14.3975 16.5576 15.3291 15.2648 15.1065 13.8928C14.8838 12.5208 13.5909 11.5891 12.219 11.8118C10.847 12.0345 9.91529 13.3273 10.138 14.6994C10.3607 16.0713 11.6535 17.003 13.0255 16.7804Z" fill="white"/>
<path d="M19.6036 16.7804C20.9755 16.5576 21.9072 15.2648 21.6844 13.8928C21.4618 12.5208 20.169 11.5891 18.797 11.8118C17.425 12.0345 16.4933 13.3273 16.716 14.6994C16.9387 16.0713 18.2315 17.003 19.6036 16.7804Z" fill="white"/>
<path d="M15.907 3.90698C9.07343 3.90698 3.53312 9.55283 3.53491 16.5151H6.69561C6.69561 11.2974 10.787 7.06708 15.907 7.06708C21.027 7.06708 25.1185 11.2974 25.1185 16.5151H28.2792C28.2803 9.55283 22.74 3.90698 15.907 3.90698Z" fill="white"/>
</g>
<defs>
<clipPath id="clip0_387_6720">
<rect width="32" height="32" fill="white"/>
</clipPath>
</defs>
</svg>
