<svg width="32" height="32" viewBox="0 0 32 32" fill="none" xmlns="http://www.w3.org/2000/svg">
<path fill-rule="evenodd" clip-rule="evenodd" d="M16 32C24.8366 32 32 24.8366 32 16C32 7.16344 24.8366 0 16 0C7.16344 0 0 7.16344 0 16C0 24.8366 7.16344 32 16 32ZM11.0532 24H6.40472C5.58452 24 5.06938 23.115 5.47443 22.4018L15.1257 5.40792C15.5382 4.68145 16.5871 4.68707 16.9918 5.41792L19.3576 9.68937C19.8768 10.6268 19.8671 11.7677 19.3322 12.6963L13.7018 22.4692C13.1562 23.4163 12.1463 24 11.0532 24ZM23.2795 16.5736L26.5299 22.4095C26.9271 23.1227 26.4115 24 25.5952 24H18.8974C18.0691 24 17.555 23.0992 17.9763 22.386L21.4237 16.55C21.8439 15.8387 22.8775 15.8518 23.2795 16.5736Z" fill="#D74F49"/>
</svg>
