<svg width="32" height="32" viewBox="0 0 32 32" fill="none" xmlns="http://www.w3.org/2000/svg">
<path fill-rule="evenodd" clip-rule="evenodd" d="M1.08293 21.7729C-2.10681 13.5313 1.98933 4.27136 10.2256 1.08429C18.4632 -2.10678 27.7298 1.98403 30.9169 10.227C34.108 18.4659 30.0078 27.7285 21.7716 30.9169C13.5353 34.104 4.27399 30.0132 1.08293 21.7729ZM21.433 12.6649C21.5503 12.213 21.5663 11.7598 21.481 11.308C21.369 10.6828 21.0811 10.1363 20.6186 9.68045C20.148 9.22591 19.5469 8.92733 18.8111 8.76605C18.5312 8.70073 18.1953 8.67941 17.8367 8.67941L17.3835 6.25078L15.0469 6.68665L15.4667 8.95666L13.9632 9.23524L13.5473 6.96657L11.2053 7.39845L11.6265 9.67911L8.05822 10.3389L8.41412 12.249L8.96329 12.1531C9.31919 12.0771 9.57911 12.0678 9.71774 12.1157C9.85637 12.1491 9.96167 12.2224 10.0363 12.325C10.1123 12.429 10.1883 12.6889 10.2616 13.0941L11.6958 20.7879C11.7758 21.1891 11.7971 21.4543 11.7638 21.581C11.7318 21.6996 11.6598 21.8076 11.5385 21.8916C11.4226 21.9875 11.1853 22.0622 10.8201 22.1222L10.2749 22.2301L10.6335 24.1389L14.1951 23.4764L14.6216 25.7504L16.9596 25.3132L16.5344 23.0445L17.866 22.794C17.8864 22.7903 17.9055 22.7856 17.9243 22.781C17.961 22.772 17.9966 22.7633 18.038 22.7633L18.4619 25.0386L20.7972 24.5974L20.3426 22.1355C20.7132 21.9862 21.0371 21.8196 21.3157 21.6516C22.0621 21.1811 22.6033 20.5959 22.9232 19.8855C23.2511 19.2003 23.3511 18.4805 23.2138 17.7501C23.0938 17.1329 22.8459 16.6064 22.466 16.1626C22.0781 15.716 21.6116 15.4068 21.0678 15.2215C20.6865 15.0855 20.1574 14.9922 19.4869 14.9522C20.0467 14.635 20.4826 14.2818 20.7918 13.9045C21.1038 13.526 21.3144 13.1061 21.433 12.6649ZM16.8956 11.16C16.5344 11.1174 15.9146 11.172 15.0268 11.34L13.514 11.6212L14.1418 14.9856L15.6587 14.7043C16.4478 14.5564 17.0196 14.3751 17.3768 14.1698C17.7341 13.9752 17.9753 13.7219 18.1206 13.4194C18.2566 13.1221 18.3019 12.7942 18.2312 12.4396C18.1673 12.0784 18.0206 11.7838 17.7874 11.5639C17.5608 11.344 17.2675 11.2147 16.8956 11.16ZM18.102 16.5811C17.6914 16.5078 17.1023 16.5491 16.3158 16.6944L14.527 17.0316L15.0829 20.0121C15.1708 20.4253 15.2361 20.6799 15.2695 20.7425C15.3201 20.8279 15.3881 20.8812 15.4654 20.9012C15.5494 20.9212 15.76 20.9065 16.0959 20.8385L17.1036 20.6572C17.6874 20.5399 18.1673 20.3986 18.5285 20.2147C18.8951 20.0334 19.179 19.7455 19.3883 19.3536C19.5869 18.9511 19.6469 18.5259 19.5616 18.0393C19.4789 17.6341 19.3243 17.3089 19.083 17.061C18.8324 16.8144 18.5099 16.6504 18.102 16.5811Z" fill="#0AC18E"/>
</svg>
