<svg width="32" height="32" viewBox="0 0 32 32" fill="none" xmlns="http://www.w3.org/2000/svg">
<path fill-rule="evenodd" clip-rule="evenodd" d="M16 32C24.8366 32 32 24.8366 32 16C32 7.16344 24.8366 0 16 0C7.16344 0 0 7.16344 0 16C0 24.8366 7.16344 32 16 32ZM10.5196 8.35403L16 5L21.4804 8.35403L19.4706 9.61816L16 7.50295L12.5294 9.61816L10.5196 8.35403ZM13.9902 10.4949L16 9.23077L18.0098 10.4949L16 11.759L13.9902 10.4949ZM12.5392 11.3716L16 13.5227L19.4608 11.3716L21.5294 12.6358V15.1029L17.9412 17.2539V21.5561L16 22.783L14.0588 21.5561V17.2539L10.4706 15.1029V12.6358L12.5392 11.3716ZM13.9902 23.2688L16 24.5329L18.0098 23.2688V25.7359L16 27L13.9902 25.7359V23.2688ZM7 14.7359L9.00981 16V20.2308L12.4706 22.3818V24.8489L7 21.4949V14.7359ZM10.4706 16.8767L12.4804 18.1409V20.608L10.4706 19.3438V16.8767ZM9.00981 9.23077L11.0784 10.4949L9.00981 11.759V14.2261L7 12.962V10.4949L9.00981 9.23077ZM22.9902 16L25 14.7359V21.4949L19.5294 24.8489V22.3818L22.9902 20.2308V16ZM19.5196 18.1409L21.5294 16.8767V19.3438L19.5196 20.608V18.1409ZM20.9216 10.4949L22.9902 9.23077L25 10.4949V12.962L22.9902 14.2261V11.759L20.9216 10.4949Z" fill="#F0B90B"/>
</svg>
