<svg width="32" height="32" viewBox="0 0 32 32" fill="none" xmlns="http://www.w3.org/2000/svg">
<path fill-rule="evenodd" clip-rule="evenodd" d="M32 16.0007C32 7.1597 24.8336 -0.00133291 15.998 1.86095e-07C7.16504 1.86095e-07 0 7.15837 0 16.0007C0 24.8363 7.1637 31.9987 15.998 31.9987C24.8336 31.9987 32 24.8363 32 16.0007ZM22.6205 11.8529C22.8939 12.4475 22.9659 13.0608 22.8445 13.6848C22.7619 14.1368 22.5819 14.5528 22.3099 14.9341C22.0406 15.3007 21.6913 15.6181 21.2633 15.858C20.838 16.098 20.3046 16.2714 19.6673 16.3634C20.278 16.6433 20.742 16.9207 21.0459 17.1847C21.4873 17.5526 21.8099 18.01 22.0099 18.5673C22.2046 19.1192 22.2472 19.6979 22.1339 20.3165C21.9966 21.0485 21.6473 21.6831 21.0939 22.2045C20.5366 22.7511 19.8233 23.1044 18.9554 23.2724C18.638 23.3297 18.2727 23.3657 17.8727 23.3711L17.4074 25.8323L15.0702 25.4017L15.4955 23.1257C15.4561 23.1114 15.4185 23.1067 15.3802 23.1019C15.3616 23.0996 15.3428 23.0972 15.3235 23.0937L13.9902 22.8471L13.5676 25.1177L11.2304 24.6803L11.6517 22.4044L8.09048 21.7365L8.44514 19.8286L8.99445 19.9245C9.3571 20.0019 9.60509 20.0165 9.74775 19.9699C9.88908 19.9339 9.99574 19.8592 10.0691 19.7592C10.1477 19.6552 10.2197 19.3979 10.2917 18.9979L11.7317 11.3009C11.8117 10.8969 11.8303 10.6276 11.7997 10.5023C11.7677 10.3783 11.6943 10.2743 11.577 10.1903C11.465 10.0956 11.2197 10.0103 10.8584 9.9543L10.3117 9.84363L10.6677 7.93571L14.2342 8.60769L14.6649 6.32778L17.0034 6.76909L16.5768 9.03567L18.0781 9.31832L18.5034 7.04908L20.8393 7.48506L20.3846 9.9143C20.718 10.0463 21.0246 10.1836 21.2646 10.3476C21.8912 10.7636 22.3459 11.2596 22.6205 11.8529ZM19.3073 12.5888C19.174 12.3035 18.9473 12.0755 18.6193 11.8902C18.302 11.7209 17.702 11.5489 16.8127 11.3849L15.3008 11.1022L14.6701 14.4648L16.1874 14.7501C16.9754 14.8954 17.5767 14.9354 17.982 14.8714C18.3847 14.8181 18.7033 14.6714 18.9473 14.4408C19.1806 14.2141 19.3406 13.9221 19.4059 13.5675C19.4766 13.2048 19.4433 12.8795 19.3073 12.5888ZM18.5326 18.1873C18.386 17.8646 18.1433 17.5953 17.7887 17.3833C17.4327 17.1673 16.8687 16.9927 16.0834 16.846L14.2942 16.5153L13.7355 19.4979C13.6689 19.9139 13.6382 20.1765 13.6462 20.2445C13.6622 20.3445 13.7048 20.4179 13.7728 20.4659C13.8448 20.5125 14.0448 20.5765 14.3808 20.6338L15.3874 20.8285C15.9768 20.9298 16.4714 20.9685 16.878 20.9298C17.286 20.8952 17.654 20.7285 17.99 20.4365C18.3207 20.1325 18.5313 19.7579 18.6246 19.2726C18.6966 18.8632 18.6673 18.5046 18.5326 18.1873Z" fill="#F7931A"/>
</svg>
