<svg width="32" height="32" viewBox="0 0 32 32" fill="none" xmlns="http://www.w3.org/2000/svg">
<path fill-rule="evenodd" clip-rule="evenodd" d="M16 32C24.8366 32 32 24.8366 32 16C32 7.16344 24.8366 0 16 0C7.16344 0 0 7.16344 0 16C0 24.8366 7.16344 32 16 32ZM16 30.6667C24.1002 30.6667 30.6667 24.1002 30.6667 16C30.6667 7.89982 24.1002 1.33333 16 1.33333C7.89982 1.33333 1.33333 7.89982 1.33333 16C1.33333 24.1002 7.89982 30.6667 16 30.6667Z" fill="#E9BD43"/>
<path d="M15.999 28C22.626 28.001 28.001 22.63 28.001 15.999C28.001 9.37203 22.626 4.00001 15.999 4C9.37302 4 4 9.37202 4 15.999C4.00001 22.631 9.37403 28 15.999 28ZM15.248 23.5859L15.6221 21.7197C15.5875 21.708 15.554 21.7041 15.5205 21.7002C15.5042 21.6983 15.4875 21.6962 15.4707 21.6934L14.3008 21.4902L13.9297 23.3535L11.8779 22.9941L12.248 21.1279L9.12207 20.5801L9.43359 19.0146L9.91504 19.0928C10.2329 19.1561 10.4509 19.169 10.5762 19.1309C10.7 19.1014 10.794 19.0399 10.8584 18.958C10.9274 18.8727 10.9905 18.6611 11.0537 18.333L12.3184 12.0195C12.3885 11.6885 12.4047 11.4672 12.3779 11.3643C12.3499 11.2627 12.2853 11.1772 12.1826 11.1084C12.0843 11.0308 11.8687 10.96 11.5518 10.9141L11.0713 10.8232L11.3838 9.25879L14.5146 9.80957L14.8926 7.93945L16.9453 8.30176L16.5703 10.1611L17.8887 10.3926L18.2617 8.53125L20.3115 8.88867L19.9131 10.8818C20.2056 10.9901 20.475 11.1028 20.6855 11.2373C21.2353 11.5784 21.634 11.9852 21.875 12.4717C22.1149 12.9595 22.1787 13.4628 22.0723 13.9746C21.9997 14.3453 21.8412 14.6863 21.6025 14.999C21.3662 15.2997 21.0601 15.561 20.6846 15.7578C20.3113 15.9547 19.8426 16.0964 19.2832 16.1719C19.8191 16.4015 20.2263 16.6292 20.4932 16.8457C20.8805 17.1475 21.1643 17.5224 21.3398 17.9795C21.5107 18.4323 21.5477 18.9076 21.4482 19.415C21.3277 20.0154 21.0207 20.5363 20.5352 20.9639C20.046 21.4121 19.4198 21.7021 18.6582 21.8398C18.3797 21.8868 18.059 21.9165 17.708 21.9209L17.2998 23.9395L15.248 23.5859ZM16.2285 14.8486C16.9199 14.9678 17.448 15.0007 17.8037 14.9482C18.1571 14.9045 18.4372 14.7839 18.6514 14.5947C18.8561 14.4088 18.9964 14.1688 19.0537 13.8779C19.1156 13.5806 19.0871 13.3135 18.9678 13.0752C18.8507 12.8412 18.6511 12.6549 18.3633 12.5029C18.0848 12.364 17.5579 12.2224 16.7773 12.0879L15.4502 11.8564L14.8975 14.6143L16.2285 14.8486ZM16.835 19.918C17.1931 19.8895 17.5166 19.7532 17.8115 19.5137C18.1017 19.2643 18.2862 18.9566 18.3682 18.5586C18.4314 18.2228 18.4053 17.9283 18.2871 17.668C18.1584 17.4035 17.9458 17.1826 17.6348 17.0088C17.3223 16.8316 16.827 16.6877 16.1377 16.5674L14.5674 16.2969L14.0771 18.7432C14.0187 19.0838 13.9912 19.2992 13.998 19.3555C14.0121 19.4374 14.0498 19.4977 14.1094 19.5371C14.1726 19.5754 14.3486 19.6278 14.6436 19.6748L15.5264 19.835C16.0436 19.9181 16.4781 19.9497 16.835 19.918Z" fill="#F7931A"/>
</svg>
