<svg width="32" height="32" viewBox="0 0 32 32" fill="none" xmlns="http://www.w3.org/2000/svg">
<path fill-rule="evenodd" clip-rule="evenodd" d="M27.3137 4.6863C33.5621 10.9347 33.5621 21.0653 27.3137 27.3137C21.0653 33.5621 10.9347 33.5621 4.6863 27.3137C-1.56211 21.0653 -1.56209 10.9347 4.68629 4.6863C10.9347 -1.56208 21.0653 -1.56212 27.3137 4.6863ZM8.26898 13.7373L6.00625 16L8.26901 18.2628L10.5317 16L8.26898 13.7373ZM9.87174 12.1345L16 6.00625L18.2628 8.26901L12.1345 14.3973L9.87174 12.1345ZM25.9938 16L23.7311 13.7373L13.7373 23.731L16.0001 25.9938L25.9938 16ZM9.87174 19.8655L19.8655 9.87171L22.1283 12.1345L12.1345 22.1283L9.87174 19.8655Z" fill="#F3BA2F"/>
</svg>
