<svg width="32" height="32" viewBox="0 0 32 32" fill="none" xmlns="http://www.w3.org/2000/svg">
<g clip-path="url(#clip0_498_9860)">
<circle cx="16" cy="16" r="15" fill="white" stroke="#0052FF" stroke-width="2"/>
<path fill-rule="evenodd" clip-rule="evenodd" d="M21.9501 13.7895C22.0566 13.2137 21.9934 12.6477 21.7535 12.0989C21.5124 11.5514 21.1134 11.0937 20.5633 10.7098C20.3527 10.5584 20.0835 10.4317 19.791 10.3099L20.19 8.06802L18.1397 7.66566L17.7664 9.75986L16.4487 9.49901L16.8232 7.40727L14.7705 7L14.3926 9.10404L11.2621 8.4839L10.9497 10.2447L11.4295 10.3468C11.7466 10.3985 11.9619 10.4772 12.0602 10.5646C12.1632 10.6421 12.2276 10.7381 12.2557 10.8525C12.2826 10.9681 12.2662 11.2167 12.196 11.5895L10.9321 18.6928C10.8689 19.0619 10.8057 19.2994 10.7367 19.3954C10.6723 19.4877 10.5787 19.5566 10.4546 19.5898C10.3294 19.6329 10.1117 19.6193 9.79344 19.548L9.31129 19.4594L9 21.2201L12.1258 21.8366L11.756 23.9369L13.8074 24.3405L14.1784 22.2451L15.3487 22.4727C15.3655 22.4759 15.3821 22.4781 15.3984 22.4802C15.432 22.4847 15.465 22.489 15.4996 22.5022L15.1263 24.6026L17.1778 25L17.5862 22.7286C17.9373 22.7237 18.2579 22.6905 18.5364 22.6376C19.2983 22.4825 19.9244 22.1565 20.4135 21.652C20.8992 21.1709 21.2058 20.5852 21.3263 19.9097C21.4258 19.3388 21.3884 18.8048 21.2175 18.2954C21.042 17.7811 20.7588 17.359 20.3714 17.0194C20.1046 16.7758 19.6973 16.5199 19.1614 16.2615C19.7207 16.1766 20.1888 16.0166 20.5622 15.7951C20.9378 15.5737 21.2444 15.2808 21.4808 14.9424C21.7195 14.5905 21.8775 14.2066 21.9501 13.7895ZM18.2415 12.1334C18.5294 12.3044 18.7283 12.5148 18.8453 12.7781C18.9647 13.0463 18.994 13.3466 18.9319 13.6812C18.8746 14.0085 18.7342 14.278 18.5294 14.4872C18.3152 14.7 18.0355 14.8354 17.6821 14.8846C17.3263 14.9437 16.7985 14.9068 16.1069 14.7726L14.7752 14.5093L15.3287 11.4062L16.6558 11.667C17.4363 11.8184 17.963 11.9771 18.2415 12.1334ZM17.5124 17.2027C17.8237 17.3984 18.0367 17.6469 18.1654 17.9447C18.2836 18.2375 18.3094 18.5685 18.2462 18.9463C18.1642 19.3941 17.9793 19.7399 17.6891 20.0204C17.3942 20.2899 17.0712 20.4437 16.7131 20.4757C16.3562 20.5114 15.922 20.4757 15.4048 20.3822L14.5212 20.2025C14.2263 20.1496 14.0508 20.0906 13.9876 20.0475C13.9279 20.0032 13.8905 19.9355 13.8764 19.8432C13.8694 19.7805 13.8963 19.5381 13.9548 19.1542L14.4452 16.4017L16.0156 16.7069C16.7049 16.8422 17.1999 17.0034 17.5124 17.2027Z" fill="#0052FF"/>
</g>
<defs>
<clipPath id="clip0_498_9860">
<rect width="32" height="32" fill="white"/>
</clipPath>
</defs>
</svg>
