<svg width="32" height="32" viewBox="0 0 32 32" fill="none" xmlns="http://www.w3.org/2000/svg">
<path fill-rule="evenodd" clip-rule="evenodd" d="M0 16C0 7.16342 7.16349 0 16 0C24.8366 0 32 7.16342 32 16C32 24.8366 24.8366 32 16 32C7.16349 32 0 24.8366 0 16ZM23.9918 15.1478H25.4637V13.4035H23.5797C22.5224 10.5305 19.7612 8.4812 16.5213 8.4812H11.569H9.88475V10.2256V13.4034H7.71933V15.1478H9.88475V16.9524H7.71933V18.6968H9.88475V21.7744V23.5188V23.5188H16.5213V23.5188C19.7233 23.5188 22.4574 21.517 23.5415 18.6968H25.4637V16.9524H23.9804C24.0198 16.6404 24.0402 16.3226 24.0402 16C24.0402 15.7118 24.0233 15.4276 23.9918 15.1478ZM16.5213 10.2256H11.569V13.4034H21.6801C20.7295 11.5185 18.7765 10.2256 16.5213 10.2256ZM11.569 16.9524V15.1478H22.2331C22.2743 15.426 22.2958 15.7104 22.2958 16C22.2958 16.3244 22.2686 16.6425 22.2172 16.9524H11.569ZM16.5213 21.7744H11.569V18.6968H21.6282C20.6597 20.5271 18.7364 21.7744 16.5213 21.7744Z" fill="#FFA800"/>
</svg>
