<svg width="32" height="32" viewBox="0 0 32 32" fill="none" xmlns="http://www.w3.org/2000/svg">
<path fill-rule="evenodd" clip-rule="evenodd" d="M32 16C32 24.8366 24.8366 32 16 32C7.16344 32 0 24.8366 0 16C0 7.16344 7.16344 0 16 0C24.8366 0 32 7.16344 32 16ZM5.36995 26.1051C5.58135 25.8096 5.80797 25.5254 6.00001 25.3333C6.53334 24.8 6.66668 23.7778 6.66668 23.3333L7.33334 22.6667L6.66668 22L7.33334 20.6667C6.8889 20 6.00001 18.1333 6.00001 16C6.00001 13.3333 6.66668 12.6667 7.33334 12C7.55556 11.7778 7.77778 11.2593 8 10.6667V11.3333H10.6667L10.6667 20.6667H8V24.6667H17.3333C23.3333 24.6667 25.3333 20 25.3333 16.6667V15.3333C25.3333 8.66667 20 7.33333 17.3333 7.33333H10.0714C10.6885 6.37575 11.3333 4.52121 11.3333 2.66667C12.4 2.66667 13.5556 4.88889 14 6C14.6667 6.22222 16.1333 6.66667 16.6667 6.66667H19.3333C20.4445 5.33333 22.8 2.8 23.3333 3.33333C24 4 24 7.33333 24 8.66667C24 9.39811 24.2006 9.92893 24.4918 10.6994C24.7315 11.3333 25.0324 12.1296 25.3333 13.3333C25.7106 14.8422 25.8744 15.4974 26.0662 16.1441C26.2135 16.6404 26.3772 17.1317 26.6667 18C27.3333 20 27.3333 22 27.3333 23.3333C27.3333 23.8114 27.4672 24.3965 27.615 24.9568C24.9329 28.4298 20.7277 30.6667 16 30.6667C11.8164 30.6667 8.04193 28.915 5.36995 26.1051ZM15.3333 11.3333H17.3333C18.2222 11.3333 20 12.2667 20 16C20 19.7333 18.2222 20.6667 17.3333 20.6667H15.3333V11.3333Z" fill="#B69F47"/>
<path fill-rule="evenodd" clip-rule="evenodd" d="M5.37 26.1051C5.58139 25.8096 5.80801 25.5253 6.00005 25.3333C6.53338 24.8 6.66672 23.7777 6.66672 23.3333L7.33338 22.6666L6.66672 22L7.33338 20.6666C6.88894 20 6.00005 18.1333 6.00005 16C6.00005 13.3333 6.66672 12.6666 7.33338 12C7.5556 11.7777 7.77782 11.2592 8.00004 10.6666V11.3333H10.6667L10.6667 20.6666H8.00004V24.6666H17.3334C23.3334 24.6666 25.3334 20 25.3334 16.6666V15.3333C25.3334 8.66663 20 7.33329 17.3334 7.33329H10.0715C10.6885 6.37571 11.3334 4.52117 11.3334 2.66663C12.4001 2.66663 13.5556 4.88885 14 5.99996C14.6667 6.22218 16.1334 6.66663 16.6667 6.66663H19.3334C20.4445 5.33329 22.8 2.79996 23.3334 3.33329C24.0001 3.99996 24.0001 7.33329 24.0001 8.66663C24.0001 9.39807 24.2007 9.92889 24.4919 10.6993C24.7315 11.3333 25.0324 12.1295 25.3334 13.3333C25.7106 14.8422 25.8744 15.4973 26.0663 16.1441C26.2135 16.6403 26.3773 17.1317 26.6667 18C27.3334 20 27.3334 22 27.3334 23.3333C27.3334 23.8113 27.4673 24.3965 27.6151 24.9567C24.9329 28.4298 20.7277 30.6666 16 30.6666C11.8165 30.6666 8.04197 28.915 5.37 26.1051ZM15.3334 11.3333H17.3334C18.2223 11.3333 20 12.2666 20 16C20 19.7333 18.2223 20.6666 17.3334 20.6666H15.3334V11.3333Z" fill="#FBE7A6"/>
</svg>
