<svg width="32" height="32" viewBox="0 0 32 32" fill="none" xmlns="http://www.w3.org/2000/svg">
<path d="M12.17 9.70581H13.0467L13.0476 9.70262H12.17V9.70581Z" fill="#7957DE"/>
<path fill-rule="evenodd" clip-rule="evenodd" d="M16 32C24.8366 32 32 24.8366 32 16C32 7.16344 24.8366 0 16 0C7.16344 0 0 7.16344 0 16C0 24.8366 7.16344 32 16 32ZM15.144 7.28662H9.72061V22.2172L9.72093 22.2203L12.1695 24.6309V24.6364H12.1752L19.3065 31.6572C25.1383 30.4316 29.8011 26.0311 31.4021 20.3469L20.1082 9.23308C20.0737 9.19839 20.039 9.16418 20.0038 9.13043C19.3556 8.50877 18.6106 8.04623 17.7684 7.74223C16.9258 7.43857 16.051 7.28662 15.144 7.28662Z" fill="#7957DE"/>
<path d="M16.1644 19.5153C15.4841 19.7061 14.7615 19.8014 13.997 19.8014H12.1697V9.70286H14.4051C15.1566 9.70286 15.8467 9.79819 16.4754 9.98896C17.1039 10.1796 17.6481 10.4763 18.1083 10.879C18.5682 11.2817 18.9278 11.8081 19.1871 12.4579C19.4463 13.108 19.5759 13.8112 19.5759 14.7151C19.5759 15.6337 19.4301 16.4142 19.1386 17.0569C18.847 17.7001 18.4484 18.2226 17.943 18.6253C17.4376 19.0278 16.8447 19.3246 16.1644 19.5153Z" fill="#6834C5"/>
<path d="M20.109 9.23438C20.708 9.83859 21.1913 10.5845 21.5587 11.4724C21.9475 12.4121 22.1419 13.4436 22.1419 14.7151C22.1419 16.0009 21.9183 17.1135 21.4712 18.053C21.0241 18.9928 20.4473 19.7695 19.7412 20.3843C19.0347 20.9989 18.2507 21.458 17.3891 21.7617C16.527 22.0657 15.6814 22.2174 14.8522 22.2174H9.72093L9.7207 22.2205L19.3063 31.6574C25.1381 30.4319 29.8008 26.0313 31.4018 20.3472L20.109 9.23438Z" fill="#6834C5"/>
</svg>
