<svg width="32" height="32" viewBox="0 0 32 32" fill="none" xmlns="http://www.w3.org/2000/svg">
<circle cx="16" cy="16" r="16" fill="#4773F1"/>
<path d="M26 6.68158C26 6.30293 25.702 6 25.3296 6C24.9571 6 25.1806 6 25.1061 6.03787H25.0689L19.2961 8.49913H12.7784L6.9311 6.03787C6.85661 6.03787 6.78213 6 6.67039 6C6.29795 6 6 6.30293 6 6.68158C6 7.06024 6 6.71945 6 6.75732C6 6.79518 7.34078 15.0878 7.34078 15.0878L6.03724 19.5938C6.03724 19.7074 6.03724 19.7453 6.03724 19.821C6.03724 20.0861 6.18622 20.3133 6.37244 20.4268L10.6182 22.6231C12.3315 23.6833 13.0391 24.895 14.3426 26.4475L15.46 27.735V27.8107C15.6462 27.9242 15.7951 28 15.9814 28C16.1676 28 16.3538 27.9242 16.4655 27.7728L17.5829 26.4475C18.8864 24.895 19.594 23.6833 21.3073 22.6231L25.5531 20.4268C25.7765 20.3133 25.8883 20.0861 25.8883 19.821C25.8883 19.5559 25.8883 19.7074 25.8883 19.6317L24.5848 15.1257L25.9255 6.79518C25.9255 6.79518 25.9255 6.75732 25.9255 6.71945L26 6.68158ZM24.0261 8.38556L23.2812 13.043L20.8231 9.78654L24.0633 8.42344L24.0261 8.38556ZM12.9646 10.241H18.9981L22.0149 14.2547H9.94786L12.9646 10.241ZM16.0186 20.8812L10.3948 15.9965H21.6425L16.0186 20.8812ZM11.2142 9.74873L8.75605 13.0051L8.01118 8.34767L11.2514 9.71085L11.2142 9.74873ZM7.97393 19.1394L8.68156 16.9811L13.486 21.3357L7.97393 19.1394ZM16.0186 25.2737L13.8957 22.6988L16.0186 23.0017L18.1415 22.6988L16.0186 25.2737ZM18.514 21.3357L23.3184 16.9811L24.0261 19.1394L18.514 21.3357Z" fill="white"/>
</svg>
