<svg width="32" height="32" viewBox="0 0 32 32" fill="none" xmlns="http://www.w3.org/2000/svg">
<g clip-path="url(#clip0_501_9931)">
<circle cx="16" cy="16" r="16" fill="#0E1420"/>
<path d="M19.378 5C15.508 5 12.221 7.976 11.808 11.807C7.975 12.221 5 15.508 5 19.377C5.00221 23.5858 8.41324 26.9972 12.622 27C16.492 27 19.792 24.024 20.192 20.193C24.024 19.779 27 16.492 27 12.623C26.9978 8.41424 23.5868 5.00276 19.378 5ZM25.214 13.476C24.8234 16.0418 22.8097 18.0554 20.244 18.446V13.476H25.214ZM6.786 18.524C7.17139 15.9532 9.18621 13.9331 11.756 13.541V18.511H6.786V18.524ZM18.459 20.244C18.0322 23.1382 15.5475 25.2815 12.622 25.279C9.69707 25.2815 7.21278 23.1386 6.786 20.245H18.459V20.244ZM18.524 13.476V18.511H13.476V13.476H18.524ZM25.214 11.756H13.541C13.9678 8.86182 16.4525 6.71848 19.378 6.721C22.3029 6.71848 24.7872 8.86137 25.214 11.755V11.756Z" fill="#67D8F3"/>
</g>
<defs>
<clipPath id="clip0_501_9931">
<rect width="32" height="32" fill="white"/>
</clipPath>
</defs>
</svg>
