<svg width="32" height="32" viewBox="0 0 32 32" fill="none" xmlns="http://www.w3.org/2000/svg">
<g clip-path="url(#clip0_387_6643)">
<path d="M16 32C7.163 32 0 24.837 0 16C0 7.163 7.163 0 16 0C24.837 0 32 7.163 32 16C32 24.837 24.837 32 16 32ZM16 4L13.7425 5.29806L7.59083 8.85362L5.33333 10.1517V22.455L7.59083 23.7531L13.7989 27.3086L16.0564 28.6067L18.3139 27.3086L24.4092 23.7531L26.6667 22.455V10.1517L24.4092 8.85362L18.2575 5.29806L16 4ZM9.84832 19.8589V12.7478L16 9.19224L22.1517 12.7478V19.8589L16 23.4145L9.84832 19.8589Z" fill="#3B5FCB"/>
</g>
<defs>
<clipPath id="clip0_387_6643">
<rect width="32" height="32" fill="white"/>
</clipPath>
</defs>
</svg>
