<svg width="32" height="32" viewBox="0 0 32 32" fill="none" xmlns="http://www.w3.org/2000/svg">
<g clip-path="url(#clip0_387_6511)">
<path d="M16 0C7.164 0 0 7.164 0 16C0 24.8373 7.164 32 16 32C24.836 32 32 24.8373 32 16C32 7.164 24.836 0 16 0ZM22.512 23.4027H14.2893H9.28933L10.1147 20.236L10.5973 18.3813L8.66533 19.0827L9.28667 16.6947L11.2187 15.9933L13.456 7.40267H18.456L16.7413 13.988L19.1227 13.1253L18.5013 15.5133L16.1187 16.3773L15.1147 20.236H23.3373L22.512 23.4027Z" fill="#3D65AE"/>
</g>
<defs>
<clipPath id="clip0_387_6511">
<rect width="32" height="32" fill="white"/>
</clipPath>
</defs>
</svg>
