<svg width="32" height="32" viewBox="0 0 32 32" fill="none" xmlns="http://www.w3.org/2000/svg">
<path d="M14 0.123535V4.42725C11.3707 5.18597 9.50006 7.62024 9.50006 10.3761C9.50006 12.4955 10.431 13.9948 11.7284 15.0418C12.8115 15.9159 14.1847 16.4914 15.2555 16.9401L15.2577 16.941L15.2591 16.9416C16.8687 17.6162 19.0001 18.3043 19.0001 20.3761C19.0001 22.1927 17.8162 23.3761 16.0001 23.3761C15.1655 23.3761 12.6954 22.7857 11.9524 19.4422L8.29769 20.3099C9.23755 24.5393 11.7572 26.3944 14 27.0613V31.876C6.1074 30.8918 0 24.159 0 15.9998C0 7.8405 6.1074 1.10771 14 0.123535Z" fill="#5AB4E5"/>
<path d="M18 4.3289C21.0329 5.07036 22.3654 7.65441 22.857 8.88328L19.143 10.3688C18.7205 9.3124 17.9584 8.12606 16.25 8.12606C14.8754 8.12606 13.5 8.8431 13.5 10.3761C13.5 12.1652 15.682 12.7793 17.0261 13.3453L17.0433 13.3525C18.1774 13.83 19.6657 14.4567 20.8345 15.4819C22.1299 16.6182 23 18.2013 23 20.3761C23 23.5798 21.0945 26.2822 18 27.1066V31.876C25.8926 30.8917 31.9999 24.159 31.9999 15.9998C31.9999 7.84054 25.8926 1.10777 18 0.123548V4.3289Z" fill="#6F62D7"/>
</svg>
