<svg width="32" height="32" viewBox="0 0 32 32" fill="none" xmlns="http://www.w3.org/2000/svg">
<path d="M16 32C24.8366 32 32 24.8366 32 16C32 7.16344 24.8366 0 16 0C7.16344 0 0 7.16344 0 16C0 24.8366 7.16344 32 16 32Z" fill="url(#paint0_linear_504_10308)"/>
<path d="M16.0001 1.91846C8.22303 1.91846 1.91846 8.22303 1.91846 16.0001C1.91846 23.7772 8.22303 30.0818 16.0001 30.0818C23.7772 30.0818 30.0818 23.7772 30.0818 16.0001C30.0818 8.22303 23.7772 1.91846 16.0001 1.91846Z" fill="#1B1821"/>
<path d="M15.4878 7.83984V13.2218H13.5187L15.4878 15.4878H13.167L11.1213 13.2218H9.58662V15.4878H7.83984V11.475H9.54449L7.83984 9.58662V7.83984H15.4878ZM10.3599 9.58662L12.0008 11.475H13.7411V9.58662H10.3599ZM16.5118 24.1598V22.4131H19.4861V18.2586H16.5118V16.5118H24.1598V18.2586H21.2328V22.4131H24.1598V24.1598H16.5118ZM7.83984 24.1598V20.147H9.58662V22.4131H12.74L13.7411 21.432V18.2586H11.6639V16.5118H15.4878V22.1298L13.4578 24.1598H7.83984ZM18.5418 15.4878L16.5118 13.4578V7.83984H18.2586V12.76L19.2596 13.7411H22.4131V7.83984H24.1598V15.4878H18.5418Z" fill="url(#paint1_linear_504_10308)"/>
<defs>
<linearGradient id="paint0_linear_504_10308" x1="3107.84" y1="393.44" x2="510.464" y2="2843.46" gradientUnits="userSpaceOnUse">
<stop stop-color="#D615EB"/>
<stop offset="1" stop-color="#8436F5"/>
</linearGradient>
<linearGradient id="paint1_linear_504_10308" x1="1592.84" y1="208.494" x2="268.176" y2="1458" gradientUnits="userSpaceOnUse">
<stop stop-color="#D615EB"/>
<stop offset="1" stop-color="#8436F5"/>
</linearGradient>
</defs>
</svg>
