<svg width="32" height="32" viewBox="0 0 32 32" fill="none" xmlns="http://www.w3.org/2000/svg">
<path fill-rule="evenodd" clip-rule="evenodd" d="M16 32C24.8366 32 32 24.8366 32 16C32 7.16344 24.8366 0 16 0C7.16344 0 0 7.16344 0 16C0 24.8366 7.16344 32 16 32ZM9.93641 11.728C10.1549 11.728 10.3386 11.8134 10.4877 11.9838L12.1862 14.059L14.4208 11.3371L13.2736 9.93868C12.4096 8.96648 11.3815 8.47998 10.1898 8.47998H5.46726C5.42756 8.47998 5.39508 8.49253 5.37062 8.51762C5.34576 8.54272 5.33333 8.57024 5.33333 8.60019V11.6078C5.33333 11.6378 5.34576 11.6657 5.37062 11.6904C5.39508 11.7155 5.42756 11.728 5.46726 11.728H9.93641ZM21.8399 8.47998C20.6382 8.47998 19.6053 8.96122 18.7412 9.9237L13.7203 16.0588L10.4877 19.9986C10.3286 20.1694 10.1449 20.2544 9.93641 20.2544H5.46726C5.42756 20.2544 5.39749 20.2669 5.37784 20.292C5.35779 20.3171 5.34817 20.3446 5.34817 20.3746V23.3822C5.34817 23.4227 5.35779 23.4551 5.37784 23.4802C5.39749 23.5053 5.42756 23.5178 5.46726 23.5178H10.175C11.3767 23.5178 12.4096 23.0317 13.2736 22.0591L16.015 18.7208L18.756 22.0591C19.6101 23.0317 20.6382 23.5178 21.8399 23.5178H26.5476C26.5873 23.5178 26.6169 23.5053 26.637 23.4802C26.6567 23.4555 26.6667 23.4276 26.6667 23.3976V20.39C26.6667 20.3503 26.6567 20.3175 26.637 20.2924C26.6169 20.2673 26.5873 20.2548 26.5476 20.2548H22.0784C21.8695 20.2548 21.6911 20.1747 21.542 20.014L18.2348 15.9839L21.5271 11.9838C21.6763 11.8134 21.8599 11.728 22.0784 11.728H26.5476C26.5873 11.728 26.6169 11.7155 26.637 11.6904C26.6567 11.6657 26.6667 11.6378 26.6667 11.6078V8.60019C26.6667 8.56012 26.6567 8.53017 26.637 8.50993C26.6169 8.4901 26.5873 8.47998 26.5476 8.47998H21.8399Z" fill="url(#paint0_linear_501_10004)"/>
<defs>
<linearGradient id="paint0_linear_501_10004" x1="16" y1="0" x2="16" y2="32" gradientUnits="userSpaceOnUse">
<stop stop-color="#5CCFFA"/>
<stop offset="1" stop-color="#4172EE"/>
</linearGradient>
</defs>
</svg>
