<svg width="32" height="32" viewBox="0 0 32 32" fill="none" xmlns="http://www.w3.org/2000/svg">
<circle cx="16" cy="16" r="16" fill="#2F2F2F"/>
<path fill-rule="evenodd" clip-rule="evenodd" d="M8.80021 7.89707C8.93074 7.76662 9.10772 7.69336 9.29226 7.69336H26.3179C26.628 7.69336 26.7833 8.06841 26.5638 8.28766L23.1996 11.6492C23.0691 11.7796 22.8921 11.8529 22.7076 11.8529H5.682C5.37187 11.8529 5.2166 11.4778 5.43597 11.2586L8.80021 7.89707ZM8.80023 20.4556C8.93076 20.3251 9.10774 20.2519 9.29228 20.2519H26.3179C26.628 20.2519 26.7833 20.6269 26.5639 20.8461L23.1997 24.2077C23.0691 24.3381 22.8921 24.4114 22.7076 24.4114H5.68202C5.37189 24.4114 5.21662 24.0363 5.43599 23.8171L8.80023 20.4556ZM22.7076 13.9326C22.8921 13.9326 23.0691 14.0059 23.1997 14.1363L26.5639 17.4978C26.7833 17.7171 26.628 18.0921 26.3179 18.0921H9.29228C9.10774 18.0921 8.93076 18.0189 8.80023 17.8884L5.43599 14.5269C5.21662 14.3077 5.37189 13.9326 5.68202 13.9326H22.7076Z" fill="url(#paint0_linear_387_6732)"/>
<defs>
<linearGradient id="paint0_linear_387_6732" x1="19.7559" y1="3.10753" x2="7.97271" y2="25.677" gradientUnits="userSpaceOnUse">
<stop stop-color="#00FFA3"/>
<stop offset="1" stop-color="#DC1FFF"/>
</linearGradient>
</defs>
</svg>
