<svg width="32" height="32" viewBox="0 0 32 32" fill="none" xmlns="http://www.w3.org/2000/svg">
<path d="M32 16C32 24.8365 24.8365 32 16 32C7.16345 32 0 24.8365 0 16C0 7.16345 7.16345 0 16 0C24.8365 0 32 7.16345 32 16Z" fill="black"/>
<path d="M29.6 16C29.6 23.511 23.5111 29.6 16 29.6C8.48895 29.6 2.40002 23.511 2.40002 16C2.40002 8.48892 8.48895 2.39998 16 2.39998C23.5111 2.39998 29.6 8.48892 29.6 16ZM30.2295 16C30.2295 8.14125 23.8587 1.77048 16 1.77048C8.14129 1.77048 1.77051 8.14125 1.77051 16C1.77051 23.8587 8.14129 30.2295 16 30.2295C23.8587 30.2295 30.2295 23.8587 30.2295 16Z" fill="url(#paint0_linear_502_10230)"/>
<path d="M10.8125 6.53174H21.1878V25.4678H10.8125V6.53174Z" fill="black"/>
<path d="M11.6014 12.7681C11.3355 12.6034 11.3264 12.2198 11.5843 12.0429L19.4852 6.62175C19.7495 6.47959 20.0736 6.50774 20.3067 6.69271C20.5319 6.87153 20.6345 7.16687 20.5692 7.44928L16.4112 15.4222C16.3423 15.5542 16.1757 15.6 16.049 15.5216L11.6014 12.7681Z" fill="#215140"/>
<path d="M16.4798 15.7352C16.3606 15.6646 16.2069 15.7021 16.1337 15.8196L10.908 24.2117C10.7229 24.5842 10.8147 25.0286 11.1153 25.2776C11.3664 25.4855 11.7264 25.5264 12.0348 25.3833C12.0495 25.3764 12.0635 25.3681 12.0768 25.3589L20.9691 19.2307C21.273 19.0213 21.2575 18.5674 20.94 18.3791L16.4798 15.7352Z" fill="#215140"/>
<path d="M9.09059 18.9653V14.3649H7.26904V13.0347H12.5812V14.3649H10.7681V18.9653H9.09059Z" fill="white"/>
<path d="M16.0807 19.084C15.6118 19.084 15.1784 19.0091 14.7802 18.8595C14.382 18.7099 14.0374 18.4966 13.7466 18.2198C13.4556 17.9431 13.2283 17.617 13.0645 17.2412C12.9006 16.8657 12.8188 16.452 12.8188 16.0001C12.8188 15.5482 12.9006 15.1346 13.0645 14.7589C13.2283 14.3833 13.4556 14.0571 13.7466 13.7803C14.0374 13.5036 14.382 13.2904 14.7802 13.1407C15.1784 12.991 15.6118 12.9161 16.0807 12.9161C16.6285 12.9161 17.1185 13.0122 17.5506 13.2042C17.9827 13.3963 18.3428 13.6731 18.6309 14.0345L17.5633 15.0003C17.3712 14.7745 17.1609 14.6021 16.9322 14.4835C16.7034 14.3649 16.4478 14.3056 16.1654 14.3056C15.9225 14.3056 15.6994 14.3452 15.4961 14.4242C15.2927 14.5034 15.1191 14.6177 14.9751 14.7673C14.831 14.9171 14.718 15.0964 14.6361 15.3053C14.5542 15.5144 14.5133 15.7459 14.5133 16.0001C14.5133 16.2542 14.5542 16.4859 14.6361 16.6948C14.718 16.9038 14.831 17.0832 14.9751 17.2328C15.1191 17.3825 15.2927 17.4969 15.4961 17.5759C15.6994 17.6551 15.9225 17.6945 16.1654 17.6945C16.4478 17.6945 16.7034 17.6352 16.9322 17.5166C17.1609 17.398 17.3712 17.2258 17.5633 16.9998L18.6309 17.9656C18.3428 18.3215 17.9827 18.5968 17.5506 18.7917C17.1185 18.9866 16.6285 19.084 16.0807 19.084Z" fill="white"/>
<path d="M20.7826 18.9653V16.4575L21.1723 17.4657L18.5205 13.0347H20.2912L22.206 16.2457H21.1808L23.104 13.0347H24.7307L22.0873 17.4657L22.4601 16.4575V18.9653H20.7826Z" fill="white"/>
<defs>
<linearGradient id="paint0_linear_502_10230" x1="-0.314738" y1="-21.7705" x2="28.1443" y2="-21.7705" gradientUnits="userSpaceOnUse">
<stop stop-color="#28F4AF"/>
<stop offset="0.0682429" stop-color="#28F4AF"/>
<stop offset="0.908857" stop-color="#00CAFF"/>
<stop offset="1" stop-color="#00CAFF"/>
</linearGradient>
</defs>
</svg>
