<svg width="32" height="32" viewBox="0 0 32 32" fill="none" xmlns="http://www.w3.org/2000/svg">
    <path d="M16 0C24.8366 0 32 7.16344 32 16C32 24.8366 24.8366 32 16 32C7.16344 32 0 24.8366 0 16C0 7.16344 7.16344 0 16 0ZM14.8047 29.333L28 13.1416L23.3281 8.66895L5.33301 5.33301L14.8047 29.333ZM16.0342 25.8301L17.2598 15.6162L25.5957 14.0957L16.0342 25.8301ZM16.0625 15.0449L14.7686 25.8184L7.79102 8.13574L16.0625 15.0449ZM25.791 12.7734L18.2627 14.1465L23.0391 10.1377L25.791 12.7734ZM21.6621 9.64648L16.627 13.8721L8.69141 7.24219L21.6621 9.64648Z" fill="#EB332A"/>
</svg>
