<svg width="32" height="32" viewBox="0 0 32 32" fill="none" xmlns="http://www.w3.org/2000/svg">
<circle cx="16" cy="16" r="16" fill="#0088CC"/>
<path fill-rule="evenodd" clip-rule="evenodd" d="M10.6742 10C9.5392 10 8.81539 11.2118 9.3535 12.2111L15.5598 23.737C15.647 23.899 15.8161 24 16 24C16.1839 24 16.353 23.899 16.4402 23.737L22.6465 12.2111C23.1846 11.2118 22.4608 10 21.3258 10H10.6742ZM10.234 11.737C10.0546 11.4039 10.2959 11 10.6742 11H15.5V21.5168L10.234 11.737ZM16.5 21.5168L21.766 11.7371C21.9454 11.4039 21.7041 11 21.3258 11H16.5V21.5168Z" fill="white"/>
</svg>
