<svg width="32" height="32" viewBox="0 0 32 32" fill="none" xmlns="http://www.w3.org/2000/svg">
<g clip-path="url(#clip0_387_6522)">
<path d="M16 32C7.163 32 0 24.837 0 16C0 7.163 7.163 0 16 0C24.837 0 32 7.163 32 16C32 24.837 24.837 32 16 32ZM15.75 27.5C22.2393 27.5 27.5 22.2393 27.5 15.75C27.5 9.26 22.24 4 15.75 4C9.26 4 4 9.26 4 15.75C4 22.24 9.26 27.5 15.75 27.5ZM15.05 11.39V10.65C15.05 10.2606 15.3656 9.945 15.755 9.945C16.1444 9.945 16.46 10.2606 16.46 10.65V11.34C17.6021 11.4224 18.5621 12.2291 18.84 13.34C18.8901 13.5633 18.7523 13.7856 18.53 13.84H18.06C17.7514 13.8384 17.4712 13.6594 17.34 13.38C17.0161 12.8201 16.3934 12.5028 15.75 12.57C14.75 12.57 14.15 13.19 14.15 13.75C14.15 14.31 14.62 14.64 15.62 14.89L16.62 15.11C18.35 15.48 19.08 16.21 19.08 17.48C19.0584 18.8997 17.9098 20.0439 16.49 20.06V20.91C16.49 21.2994 16.1744 21.615 15.785 21.615C15.3956 21.615 15.08 21.2994 15.08 20.91V20.07C13.8381 20.0511 12.7656 19.1963 12.47 17.99C12.4525 17.8985 12.4722 17.8037 12.5247 17.7268C12.5773 17.6498 12.6584 17.597 12.75 17.58H13.34C13.6014 17.5819 13.8385 17.7336 13.95 17.97C14.3262 18.5931 15.0252 18.9465 15.75 18.88C16.75 18.88 17.52 18.28 17.52 17.67C17.52 17.06 17.08 16.7 16.01 16.45L14.91 16.19C13.34 15.86 12.6 15.07 12.6 13.86C12.6552 12.5271 13.7176 11.4561 15.05 11.39ZM6.94 15.75C6.94235 11.9609 9.37254 8.59975 12.97 7.41C13.0992 7.36431 13.2426 7.38454 13.3541 7.4642C13.4657 7.54387 13.5313 7.67295 13.53 7.81V8.04C13.5293 8.41788 13.3001 8.75779 12.95 8.9C10.167 10.0233 8.34481 12.7239 8.34481 15.725C8.34481 18.7261 10.167 21.4267 12.95 22.55C13.3017 22.6958 13.5307 23.0393 13.53 23.42V23.63C13.53 23.8785 13.3285 24.08 13.08 24.08H12.94C9.35788 22.881 6.94235 19.5275 6.94 15.75ZM24.56 15.75C24.5634 19.5285 22.1517 22.8864 18.57 24.09C18.4275 24.138 18.2706 24.1149 18.148 24.0279C18.0253 23.9408 17.9517 23.8004 17.95 23.65V23.48C17.9604 23.092 18.1942 22.7451 18.55 22.59C21.3264 21.4635 23.1428 18.7663 23.1428 15.77C23.1428 12.7737 21.3264 10.0765 18.55 8.95C18.1871 8.7964 17.9482 8.44399 17.94 8.05V7.9C17.94 7.64 18.15 7.43 18.41 7.43H18.56C22.1386 8.62781 24.5534 11.9762 24.56 15.75Z" fill="#3C75C4"/>
</g>
<defs>
<clipPath id="clip0_387_6522">
<rect width="32" height="32" fill="white"/>
</clipPath>
</defs>
</svg>
