<svg width="32" height="32" viewBox="0 0 32 32" fill="none" xmlns="http://www.w3.org/2000/svg">
<g clip-path="url(#clip0_501_10074)">
<circle cx="16" cy="16" r="16" fill="url(#paint0_linear_501_10074)"/>
<path d="M18 7H24V10H18V14H14V10H13C11.8954 10 11 10.8954 11 12C11 13.1046 11.8954 14 13 14H14V17H13C10.2386 17 8 14.7614 8 12C8 9.23858 10.2386 7 13 7H14V3H18V7Z" fill="white"/>
<path d="M14 24H8V21H14V17H18V21H19C20.1046 21 21 20.1046 21 19C21 17.8954 20.1046 17 19 17H18V14H19C21.7614 14 24 16.2386 24 19C24 21.7614 21.7614 24 19 24H18V28H14V24Z" fill="white"/>
</g>
<defs>
<linearGradient id="paint0_linear_501_10074" x1="16" y1="0" x2="16" y2="32" gradientUnits="userSpaceOnUse">
<stop stop-color="#84CD56"/>
<stop offset="1" stop-color="#1E4C2D"/>
</linearGradient>
<clipPath id="clip0_501_10074">
<rect width="32" height="32" fill="white"/>
</clipPath>
</defs>
</svg>
