<svg width="32" height="32" viewBox="0 0 32 32" fill="none" xmlns="http://www.w3.org/2000/svg">
<g clip-path="url(#clip0_387_6524)">
<path fill-rule="evenodd" clip-rule="evenodd" d="M16 32C24.8366 32 32 24.8366 32 16C32 7.16344 24.8366 0 16 0C7.16344 0 0 7.16344 0 16C0 24.8366 7.16344 32 16 32ZM23.6592 11.8973V9H8.34075V11.8973H14.0909V13.9061C10.0524 14.1207 7.02257 15.0024 7.00007 16.0591L7 18.2622C7.02243 19.319 10.0524 20.2006 14.0909 20.4153V25.345H17.909V20.4153C21.9476 20.2006 24.9774 19.319 24.9999 18.2622L25 16.0591C24.9775 15.0024 21.9476 14.1207 17.909 13.9061V11.8973H23.6592ZM24.7936 17.1607C23.912 18.1563 20.3098 18.9018 16 18.9018C11.6902 18.9018 8.0879 18.1563 7.20634 17.1607C7.95391 16.3164 10.658 15.652 14.0909 15.4695V17.5727C14.7062 17.6054 15.3449 17.6226 16 17.6226C16.655 17.6226 17.2938 17.6054 17.909 17.5727V15.4695C21.342 15.652 24.046 16.3164 24.7936 17.1607Z" fill="#009393"/>
</g>
<defs>
<clipPath id="clip0_387_6524">
<rect width="32" height="32" fill="white"/>
</clipPath>
</defs>
</svg>
