<svg width="32" height="32" viewBox="0 0 32 32" fill="none" xmlns="http://www.w3.org/2000/svg">
<g clip-path="url(#clip0_498_9868)">
<circle cx="16" cy="16" r="16" fill="white"/>
<g clip-path="url(#clip1_498_9868)">
<path fill-rule="evenodd" clip-rule="evenodd" d="M12.1184 20.0743C11.713 19.7825 11.2237 19.538 10.6827 19.3894C10.1417 19.2409 9.54888 19.1884 8.96922 19.2506C8.38956 19.3129 7.82307 19.49 7.3288 19.7497C6.83455 20.0094 6.41252 20.3518 6.08304 20.7226C5.75266 21.0926 5.46483 21.5471 5.27206 22.0586C5.07928 22.5702 4.98155 23.1388 5.00303 23.7031C5.0245 24.2675 5.16517 24.8276 5.39629 25.324C5.62742 25.8205 5.949 26.2532 6.30662 26.5987C6.66338 26.945 7.11027 27.2564 7.62293 27.4802C8.13558 27.704 8.71402 27.8402 9.29682 27.861C9.87963 27.8818 10.4668 27.7871 10.9951 27.6005C11.5234 27.4138 11.9927 27.1351 12.3748 26.8152C12.7577 26.4961 13.1113 26.0875 13.3796 25.6089C13.6478 25.1302 13.8306 24.5817 13.8949 24.0204C13.9592 23.4591 13.905 22.885 13.7516 22.3611C13.5982 21.8372 13.3457 21.3635 13.0443 20.971L14.0398 20.007L14.7644 20.7087H15.1759L15.6726 20.2277V19.8292L14.948 19.1275L16 18.1089L17.052 19.1275L16.3274 19.8292V20.2277L16.8241 20.7087H17.2356L17.9602 20.007L18.9557 20.971C18.6543 21.3635 18.4018 21.8372 18.2484 22.3611C18.095 22.885 18.0408 23.4591 18.1051 24.0204C18.1694 24.5817 18.3522 25.1302 18.6204 25.6089C18.8887 26.0875 19.2423 26.4961 19.6252 26.8152C20.0073 27.1351 20.4766 27.4138 21.0049 27.6005C21.5332 27.7871 22.1204 27.8818 22.7032 27.861C23.286 27.8402 23.8644 27.704 24.3771 27.4802C24.8897 27.2564 25.3366 26.945 25.6934 26.5987C26.051 26.2532 26.3726 25.8205 26.6037 25.324C26.8348 24.8276 26.9755 24.2675 26.997 23.7031C27.0185 23.1388 26.9207 22.5702 26.728 22.0586C26.5352 21.5471 26.2473 21.0926 25.917 20.7226C25.5875 20.3518 25.1654 20.0094 24.6712 19.7497C24.1769 19.49 23.6104 19.3129 23.0308 19.2506C22.4511 19.1884 21.8583 19.2409 21.3173 19.3894C20.7763 19.538 20.287 19.7825 19.8816 20.0743L18.9047 19.1268L19.6289 18.4255V18.027L19.1144 17.5289H18.7029L17.9783 18.2305L16.926 17.2122L22.443 11.8699L24.6763 14.0325V11.7823H27L24.7667 9.61979L27 7.4572V7.05869L26.4856 6.56055H26.074L16 16.3156L5.92597 6.56055H5.51443L5 7.05869V7.4572L7.2333 9.61979L5 11.7823H7.32371V14.0325L9.55698 11.8699L15.074 17.2122L14.0217 18.2305L13.2971 17.5289H12.8856L12.3711 18.027V18.4255L13.0953 19.1268L12.1184 20.0743ZM21.0711 25.0232C20.8439 25.4744 20.8911 26.0996 21.1836 26.5141C21.4523 26.9434 22.0207 27.2436 22.5389 27.2299C23.0571 27.2436 23.6255 26.9434 23.8943 26.5141C24.1868 26.0996 24.234 25.4744 24.0068 25.0232L24.0634 24.9641C24.5293 25.1853 25.176 25.1405 25.6047 24.8574C26.0487 24.5974 26.3594 24.0464 26.3452 23.5441C26.3594 23.0418 26.0487 22.4908 25.6047 22.2308C25.176 21.9477 24.5293 21.9029 24.0634 22.124L24.0068 22.0651C24.234 21.6138 24.1868 20.9885 23.8943 20.5741C23.6255 20.1448 23.0571 19.8446 22.5389 19.8583C22.0207 19.8446 21.4523 20.1448 21.1836 20.5741C20.8911 20.9885 20.8439 21.6138 21.0711 22.0651L21.0145 22.124C20.5485 21.9029 19.9019 21.9477 19.4732 22.2308C19.0291 22.4908 18.7184 23.0418 18.7326 23.5441C18.7184 24.0464 19.0291 24.5974 19.4732 24.8574C19.9019 25.1405 20.5485 25.1853 21.0145 24.9641L21.0711 25.0232ZM10.8162 26.5141C11.1087 26.0996 11.1559 25.4744 10.9287 25.0232L10.9853 24.9641C11.4512 25.1853 12.0979 25.1405 12.5266 24.8574C12.9707 24.5974 13.2814 24.0464 13.2672 23.5441C13.2814 23.0418 12.9707 22.4908 12.5266 22.2308C12.0979 21.9477 11.4512 21.9029 10.9853 22.124L10.9287 22.0651C11.1559 21.6138 11.1087 20.9885 10.8162 20.5741C10.5475 20.1448 9.97907 19.8446 9.46085 19.8583C8.94265 19.8446 8.37424 20.1448 8.10551 20.5741C7.81302 20.9885 7.76584 21.6138 7.993 22.0651L7.93644 22.124C7.47049 21.9029 6.82381 21.9477 6.39512 22.2308C5.95108 22.4908 5.64036 23.0418 5.65456 23.5441C5.64036 24.0464 5.95108 24.5974 6.39512 24.8574C6.82381 25.1405 7.47049 25.1853 7.93644 24.9641L7.993 25.0232C7.76584 25.4744 7.81302 26.0996 8.10551 26.5141C8.37424 26.9434 8.94265 27.2436 9.46085 27.2299C9.97907 27.2436 10.5475 26.9434 10.8162 26.5141Z" fill="#DD3300"/>
<path fill-rule="evenodd" clip-rule="evenodd" d="M15.9926 6.56074L18.6371 4L19.9466 5.26805V9.54246L16.32 13.0542H15.6652L12.0386 9.54246V5.26805L13.3481 4L15.9926 6.56074ZM13.3481 4.89665L15.6652 7.14039V11.2609L13.3481 9.01721V4.89665ZM16.3201 7.14039L18.6372 4.89665V9.01721L16.3201 11.2609V7.14039Z" fill="#DD3300"/>
</g>
</g>
<defs>
<clipPath id="clip0_498_9868">
<rect width="32" height="32" fill="white"/>
</clipPath>
<clipPath id="clip1_498_9868">
<rect width="22" height="24" fill="white" transform="translate(5 4)"/>
</clipPath>
</defs>
</svg>
