<svg width="32" height="32" viewBox="0 0 32 32" fill="none" xmlns="http://www.w3.org/2000/svg">
<path fill-rule="evenodd" clip-rule="evenodd" d="M16 32C24.8365 32 32 24.8365 32 16C32 7.16344 24.8365 0 16 0C7.16344 0 0 7.16344 0 16C0 24.8365 7.16344 32 16 32ZM16.0088 3.53265C12.902 3.53265 9.90763 4.69531 7.61488 6.79189L6.71574 5.91325C9.2448 3.58164 12.5587 2.28715 15.9985 2.28715C19.4384 2.28715 22.7523 3.58164 25.2814 5.91325L24.4027 6.79189C22.11 4.69531 19.1156 3.53265 16.0088 3.53265ZM25.214 7.59441L26.0927 6.71577V6.69527C28.4243 9.22434 29.7188 12.5382 29.7188 15.9781C29.7188 19.4179 28.4243 22.7318 26.0927 25.2609L25.214 24.3822C27.3106 22.0895 28.4733 19.0951 28.4733 15.9883C28.4733 12.8815 27.3106 9.88716 25.214 7.59441ZM6.79185 24.391C4.69776 22.0988 3.53663 19.1062 3.53663 16.0015C3.53663 12.8967 4.69776 9.90419 6.79185 7.61195L5.91321 6.73331C3.5816 9.26238 2.28711 12.5763 2.28711 16.0161C2.28711 19.456 3.5816 22.7699 5.91321 25.2989L6.79185 24.391ZM15.997 28.4615C19.1038 28.4615 22.0982 27.2989 24.3909 25.2023L25.2901 26.0809C22.761 28.4126 19.4471 29.707 16.0073 29.707C12.5674 29.707 9.25351 28.4126 6.72444 26.0809L7.60308 25.2023C9.89583 27.2989 12.8902 28.4615 15.997 28.4615ZM21.5471 13.0683C21.3714 11.2349 19.7898 10.6198 17.7895 10.4324V7.90775H16.2431V10.3855H15.0071V7.90775H13.4724V10.4499H10.3357V12.1047C10.3357 12.1047 11.4779 12.0842 11.4603 12.1047C11.6663 12.0821 11.873 12.1402 12.0369 12.267C12.2008 12.3937 12.3091 12.5792 12.339 12.7842V19.743C12.3346 19.8153 12.3157 19.886 12.2835 19.9509C12.2513 20.0158 12.2065 20.0736 12.1515 20.1208C12.0977 20.169 12.0346 20.2057 11.9661 20.2289C11.8977 20.252 11.8253 20.2611 11.7532 20.2555C11.7737 20.2731 10.6286 20.2555 10.6286 20.2555L10.3357 22.1036H13.4431V24.6868H14.9895V22.1417H16.2255V24.6751H17.7748V22.1212C20.3873 21.963 22.209 21.3187 22.4375 18.8732C22.622 16.905 21.6965 16.0264 20.2174 15.672C21.1166 15.2297 21.673 14.4097 21.5471 13.0683ZM19.3798 18.5686C19.3798 20.3323 16.6054 20.2918 15.3394 20.2733H15.3393C15.2263 20.2717 15.1253 20.2702 15.0393 20.2702V16.8611C15.1466 16.8614 15.2774 16.8585 15.4258 16.8552L15.4261 16.8552C16.7275 16.8264 19.3798 16.7678 19.3798 18.5686ZM18.6622 13.7653C18.6622 15.3718 16.3665 15.331 15.3056 15.3122C15.2059 15.3104 15.1172 15.3088 15.0423 15.3088V12.2101C15.1297 12.2101 15.2359 12.2074 15.3564 12.2043L15.3564 12.2043C16.438 12.1761 18.6622 12.1183 18.6622 13.7653Z" fill="#F7931A"/>
</svg>
