<svg width="32" height="32" viewBox="0 0 32 32" fill="none" xmlns="http://www.w3.org/2000/svg">
<g clip-path="url(#clip0_502_10156)">
<path d="M32 16C32 24.8366 24.8366 32 16 32C7.16344 32 0 24.8366 0 16C0 7.16344 7.16344 0 16 0C24.8366 0 32 7.16344 32 16Z" fill="url(#paint0_linear_502_10156)"/>
<path d="M17.8856 17.167C16.1684 18.1548 14.1983 18.6147 12.2213 18.4895C11.4645 18.493 10.715 18.3416 10.0189 18.0447C9.32283 17.7477 8.69489 17.3114 8.17375 16.7626C7.78751 16.2745 7.51104 15.7088 7.36317 15.1042C7.2153 14.4996 7.19951 13.8702 7.31688 13.2589C7.38479 12.798 7.52373 12.3504 7.72875 11.932L7.75688 11.8745C8.47934 10.502 9.54717 9.34152 10.855 8.50763C12.1697 7.66999 13.6778 7.1849 15.2343 7.09908C16.7908 7.01326 18.3431 7.3296 19.7419 8.01763C21.1353 8.70244 22.3268 9.73777 23.1994 11.022C24.0678 12.2988 24.5846 13.7818 24.698 15.3217C24.8113 16.8617 24.5171 18.4043 23.845 19.7945C23.1697 21.1898 22.1421 22.3847 20.8637 23.2614C19.5785 24.142 18.0877 24.6761 16.5356 24.812L16.6306 25.892C18.3731 25.7393 20.0467 25.1393 21.4894 24.1501C22.9251 23.1663 24.0792 21.8248 24.8375 20.2583C25.5916 18.6979 25.9215 16.9664 25.7939 15.238C25.6663 13.5096 25.0857 11.8454 24.1106 10.4126C23.1303 8.97129 21.7919 7.80972 20.2269 7.04201C18.6557 6.27094 16.9124 5.91763 15.1651 6.01616C13.4177 6.11468 11.7251 6.66171 10.2506 7.60451C8.78424 8.54188 7.5876 9.84537 6.77875 11.3864L6.74062 11.4639C6.48629 11.983 6.31443 12.5387 6.23125 13.1108C6.0922 13.8721 6.11799 14.6543 6.30688 15.4048C6.49577 16.1553 6.84337 16.8566 7.32625 17.4614C7.94081 18.1299 8.68764 18.6633 9.51934 19.0279C10.351 19.3924 11.2494 19.58 12.1575 19.5789C14.5482 19.728 16.9229 19.0989 18.9262 17.7858L17.8856 17.167Z" fill="white"/>
<path d="M19.9831 18.3958C17.9488 20.0346 15.4304 20.956 12.8188 21.017C8.51188 21.252 6.71625 19.8689 6.7 19.8545L6.3525 20.2783L6.7025 19.862L6 20.6945C6.07625 20.757 7.7975 22.132 11.8406 22.132C12.1719 22.132 12.5194 22.132 12.8813 22.1039C17.5313 21.8476 20.0863 19.8426 20.9763 18.9864L19.9831 18.3958Z" fill="white"/>
<path d="M21.85 19.5151C21.2585 20.2829 20.5323 20.9366 19.7069 21.4445C16.7925 23.3033 13.0856 23.5433 10.49 23.4139L10.4375 24.5001C10.875 24.5214 11.2925 24.5314 11.6994 24.5314C19.0181 24.5314 21.9756 21.2364 22.8019 20.0601L21.8494 19.507M21.5713 15.4101C21.7425 15.408 21.9093 15.3553 22.0506 15.2587C22.192 15.162 22.3016 15.0257 22.3657 14.8669C22.4298 14.7081 22.4454 14.5339 22.4108 14.3662C22.3761 14.1985 22.2926 14.0448 22.1707 13.9245C22.0489 13.8041 21.8942 13.7225 21.7261 13.6899C21.558 13.6572 21.384 13.675 21.226 13.741C21.068 13.807 20.933 13.9183 20.8381 14.0608C20.7432 14.2033 20.6925 14.3708 20.6925 14.542C20.6942 14.7736 20.7876 14.9952 20.9523 15.158C21.117 15.3209 21.3396 15.4111 21.5713 15.4101Z" fill="white"/>
</g>
<defs>
<linearGradient id="paint0_linear_502_10156" x1="16" y1="0" x2="16" y2="32" gradientUnits="userSpaceOnUse">
<stop stop-color="#0046EA"/>
<stop offset="1" stop-color="#00268A"/>
</linearGradient>
<clipPath id="clip0_502_10156">
<rect width="32" height="32" fill="white"/>
</clipPath>
</defs>
</svg>
