<svg width="32" height="32" viewBox="0 0 32 32" fill="none" xmlns="http://www.w3.org/2000/svg">
<g clip-path="url(#clip0_387_6587)">
<path d="M16 0C7.164 0 0 7.164 0 16C0 24.8373 7.164 32 16 32C24.8373 32 32 24.8373 32 16C32 7.164 24.8373 0 16 0ZM23.108 24.68L18.0413 19.6133C16.9147 18.488 15.084 18.4867 13.9573 19.6133L8.89067 24.68H5.75067L12.388 18.0427C13.384 17.0467 14.692 16.548 16 16.548C17.308 16.548 18.616 17.0467 19.612 18.0427L26.2493 24.68H23.108ZM19.612 13.9587C18.616 14.9547 17.308 15.4533 16 15.4533C14.6907 15.4533 13.384 14.9547 12.388 13.9587L5.75067 7.32133H8.89067L13.9573 12.388C15.0827 13.5133 16.9147 13.5147 18.0413 12.388L23.108 7.32133H26.248L19.612 13.9587Z" fill="#474747"/>
<path d="M18.0413 19.6133L23.1079 24.68H26.2493L19.6119 18.0427C18.6159 17.0467 17.3079 16.548 15.9999 16.548C14.6919 16.548 13.3839 17.0467 12.3879 18.0427L5.75061 24.68H8.89061L13.9573 19.6133C15.0839 18.4867 16.9146 18.488 18.0413 19.6133Z" fill="#EBEBF0"/>
<path d="M15.9999 15.4534C17.3079 15.4534 18.6159 14.9547 19.6119 13.9587L26.2479 7.32135H23.1079L18.0413 12.388C16.9146 13.5147 15.0826 13.5134 13.9573 12.388L8.89061 7.32135H5.75061L12.3879 13.9587C13.3839 14.9547 14.6906 15.4534 15.9999 15.4534Z" fill="#EBEBF0"/>
</g>
<defs>
<clipPath id="clip0_387_6587">
<rect width="32" height="32" fill="white"/>
</clipPath>
</defs>
</svg>
