<svg width="32" height="32" viewBox="0 0 32 32" fill="none" xmlns="http://www.w3.org/2000/svg">
<path d="M16 0C24.8366 0 32 7.16344 32 16C32 24.8366 24.8366 32 16 32C7.16344 32 0 24.8366 0 16C0 7.16344 7.16344 0 16 0ZM17.4482 17.7363C19.515 19.3808 19.7932 20.603 19.4766 22.2314C18.7599 24.7558 16.5721 25.0192 15.6406 24.8594C14.5754 24.6642 14.1264 24.6095 13.2051 23.5283C11.6503 21.4293 12.9102 19.4795 12.9102 19.4795L13.3779 21.6973L14.7188 21.4316L13.8418 16.7598L9.33301 17.8291L9.69434 19.2842L11.541 18.9258C11.541 18.9258 11.1342 19.8896 11.0254 20.6191C10.4048 24.5128 13.7003 26.2758 15.0703 26.3691C17.7871 26.5675 19.3654 25.3932 20.1846 24.1484C21.7043 21.6558 20.9455 19.8125 20.5039 18.875C19.9275 17.6942 17.6143 15.9727 17.6143 15.9727L17.4482 17.7363ZM15.3623 9.29785V22.6094H16.8115V9.29785H15.3623ZM16.7793 5.34277C14.0565 5.21492 12.5106 6.43022 11.7266 7.69727C10.2708 10.2313 11.0774 12.0529 11.5479 12.9746C12.1512 14.1297 14.4751 15.7726 14.5137 15.7998L14.6318 14.0332C12.5205 12.4463 12.2102 11.2329 12.4854 9.59473C13.135 7.05197 15.3131 6.73501 16.251 6.86914C17.3165 7.03552 17.7686 7.08007 18.7188 8.13574C20.3158 10.1701 19.1451 12.1357 19.1221 12.1738L18.5967 9.97266L17.2656 10.2734L18.2646 14.9199L22.7412 13.7324L22.3408 12.2832L20.5039 12.6924C20.5121 12.6713 20.8859 11.7091 20.9746 10.9844C21.4928 7.07416 18.1489 5.40037 16.7793 5.34277Z" fill="#2C76F2"/>
</svg>
