<svg width="16" height="16" viewBox="0 0 16 16" fill="none" xmlns="http://www.w3.org/2000/svg">
    <rect width="16" height="16" rx="4" fill="white"/>
    <path fill-rule="evenodd" clip-rule="evenodd" d="M8 2.31143C7.99997 2.25689 8.01441 2.20331 8.04187 2.15603C8.06933 2.10876 8.10885 2.06947 8.15648 2.04208C8.2041 2.0147 8.25815 2.00019 8.31322 2C8.36829 1.99982 8.42244 2.01397 8.47025 2.04103L10.75 3.33118L13.302 4.7754C13.3621 4.80942 13.4121 4.85857 13.4469 4.91787C13.4817 4.97718 13.5 5.04453 13.5 5.11311V8L11.1397 6.66433C11.021 6.59718 10.8867 6.56187 10.75 6.56187C10.6133 6.56187 10.479 6.59718 10.3603 6.66433L8 8V2.31143ZM2.5 8V5.11311C2.50002 5.04453 2.51835 4.97718 2.55312 4.91787C2.58789 4.85857 2.63787 4.80942 2.698 4.7754L4.86029 3.55178C4.97898 3.48464 5.11331 3.44932 5.25 3.44932C5.38669 3.44932 5.52102 3.48464 5.63971 3.55178L8 4.88745L2.5 8ZM8 13.689C7.99996 13.7435 7.98547 13.797 7.95798 13.8442C7.93049 13.8914 7.89096 13.9307 7.84335 13.958C7.79574 13.9854 7.74172 13.9998 7.68668 14C7.63165 14.0002 7.57753 13.986 7.52975 13.959L5.25 12.6688L2.698 11.2246C2.63787 11.1906 2.58789 11.1414 2.55312 11.0821C2.51835 11.0228 2.50002 10.9555 2.5 10.8869V8L4.86029 9.33567C4.97898 9.40282 5.11331 9.43813 5.25 9.43813C5.38669 9.43813 5.52102 9.40282 5.63971 9.33567L8 8V13.689ZM10.3603 12.4482C10.479 12.5154 10.6133 12.5507 10.75 12.5507C10.8867 12.5507 11.021 12.5154 11.1397 12.4482L13.302 11.2246C13.3621 11.1906 13.4121 11.1414 13.4469 11.0821C13.4817 11.0228 13.5 10.9555 13.5 10.8869V8L8 11.1125L10.3603 12.4482Z" fill="#159DFF"/>
</svg>
