<svg width="16" height="16" viewBox="0 0 16 16" fill="none" xmlns="http://www.w3.org/2000/svg">
    <g clip-path="url(#clip0_2579_26691)">
        <rect width="16" height="16" rx="4" fill="black"/>
        <path d="M11.2238 3.21169L8.99564 6.51836C8.84156 6.74354 9.13786 7.01613 9.35119 6.8265L11.5438 4.91836C11.603 4.87095 11.686 4.9065 11.686 4.98947V10.9509C11.686 11.0339 11.5793 11.0695 11.5319 11.0102L4.8949 3.06947C4.68156 2.80873 4.37341 2.6665 4.02971 2.6665H3.79267C3.17638 2.6665 2.66675 3.17613 2.66675 3.80428V12.1954C2.66675 12.8235 3.17638 13.3332 3.80453 13.3332C4.19564 13.3332 4.56304 13.1317 4.77638 12.788L7.00453 9.48132C7.1586 9.25613 6.8623 8.98354 6.64897 9.17317L4.45638 11.0695C4.39712 11.1169 4.31416 11.0813 4.31416 10.9984V5.04873C4.31416 4.96576 4.42082 4.93021 4.46823 4.98947L11.1053 12.9302C11.3186 13.1909 11.6386 13.3332 11.9705 13.3332H12.2075C12.8356 13.3332 13.3453 12.8235 13.3453 12.1954V3.80428C13.3334 3.17613 12.8238 2.6665 12.1956 2.6665C11.8045 2.6665 11.4371 2.86799 11.2238 3.21169Z" fill="white"/>
    </g>
    <defs>
        <clipPath id="clip0_2579_26691">
            <rect width="16" height="16" rx="4" fill="white"/>
        </clipPath>
    </defs>
</svg>
