<svg width="16" height="16" viewBox="0 0 16 16" fill="none" xmlns="http://www.w3.org/2000/svg">
    <rect width="16" height="16" rx="4" fill="#FFE800"/>
    <path d="M13.9196 7.81174L11.9269 5.12617C11.8749 5.05407 11.7709 5 11.6842 5H2.5V11H11.7883C11.8749 11 11.9441 10.964 11.9961 10.8919L13.9371 8.29838C14.0237 8.1542 14.0237 7.95592 13.9196 7.81174ZM6.84946 9.93856H3.7303V6.02737H6.78027V7.01868H4.97804V7.46928H6.57231V8.42456H4.97804V8.92922H6.84946V9.93856ZM9.86474 9.93856L9.22362 8.89318L8.58231 9.93856H7.14405L8.49568 7.97396L7.17874 6.04539H8.59975L9.24087 7.0367L9.86474 6.04539H11.2336L9.93413 7.9379L11.3202 9.95658H9.86474V9.93856Z" fill="black"/>
</svg>
