<svg width="16" height="16" viewBox="0 0 16 16" fill="none" xmlns="http://www.w3.org/2000/svg">
    <rect width="16" height="16" rx="4" fill="#1B1A1C"/>
    <path fill-rule="evenodd" clip-rule="evenodd" d="M9.90482 2.57218C10.2299 2.37528 10.6463 2.60391 10.6544 2.98372L10.7034 5.28576L13.0896 5.69691C13.4642 5.76143 13.6284 6.20705 13.3852 6.499L11.7973 8.40513L13.0032 9.37353C13.2995 9.61146 13.227 10.0808 12.8726 10.2183L10.6936 11.0639L10.9607 12.4098C11.0346 12.7825 10.6773 13.0954 10.3174 12.9731L8.76297 12.4448C6.99016 13.3053 4.86614 12.8591 3.58543 11.3991C5.48236 11.9465 7.00275 11.3743 7.72442 10.7829C7.90016 10.6389 7.9258 10.3798 7.78172 10.2042C7.63764 10.0285 7.37837 10.0029 7.20264 10.1469C6.60359 10.6378 4.96744 11.2831 2.84945 10.2306C2.00872 8.2662 2.72067 5.9324 4.60152 4.79304C5.42913 4.29171 6.35716 4.09791 7.25228 4.17898L9.90482 2.57218ZM6.37799 7.56399C5.98934 7.79942 5.48329 7.67537 5.24772 7.28689C5.01215 6.89841 5.13627 6.39264 5.52495 6.15719C5.91363 5.92177 6.41966 6.04582 6.65524 6.43429C6.89079 6.82277 6.76667 7.32854 6.37799 7.56399Z" fill="#02C076"/>
</svg>
