<svg width="32" height="32" viewBox="0 0 32 32" fill="none" xmlns="http://www.w3.org/2000/svg">
    <g clip-path="url(#clip0_3631_52094)">
        <rect width="32" height="32" rx="6" fill="#E6007A"/>
        <rect width="32" height="32" fill="#E6007A"/>
        <path d="M16.0002 9.03418C18.3301 9.03418 20.2188 7.90724 20.2188 6.51709C20.2188 5.12694 18.3301 4 16.0002 4C13.6703 4 11.7815 5.12694 11.7815 6.51709C11.7815 7.90724 13.6703 9.03418 16.0002 9.03418Z" fill="white"/>
        <path d="M16.0002 28C18.3301 28 20.2188 26.8731 20.2188 25.4829C20.2188 24.0928 18.3301 22.9658 16.0002 22.9658C13.6703 22.9658 11.7815 24.0928 11.7815 25.4829C11.7815 26.8731 13.6703 28 16.0002 28Z" fill="white"/>
        <path d="M10.1212 12.5184C11.2862 10.4485 11.2786 8.20662 10.1043 7.51108C8.93004 6.81553 7.03372 7.9297 5.86877 9.99964C4.70382 12.0696 4.71138 14.3114 5.88566 15.007C7.05994 15.7025 8.95625 14.5884 10.1212 12.5184Z" fill="white"/>
        <path d="M26.1298 22.0002C27.2947 19.9303 27.2878 17.6888 26.1143 16.9937C24.9408 16.2986 23.0452 17.4132 21.8802 19.4831C20.7153 21.5531 20.7222 23.7945 21.8957 24.4896C23.0692 25.1847 24.9648 24.0701 26.1298 22.0002Z" fill="white"/>
        <path d="M10.1049 24.489C11.2792 23.7935 11.2867 21.5516 10.1218 19.4817C8.95684 17.4118 7.06052 16.2976 5.88625 16.9931C4.71197 17.6887 4.70441 19.9305 5.86936 22.0005C7.03431 24.0704 8.93063 25.1846 10.1049 24.489Z" fill="white"/>
        <path d="M26.1153 15.0075C27.2888 14.3125 27.2957 12.071 26.1308 10.001C24.9658 7.9311 23.0702 6.81655 21.8967 7.51162C20.7232 8.2067 20.7163 10.4482 21.8812 12.5181C23.0462 14.5881 24.9418 15.7026 26.1153 15.0075Z" fill="white"/>
    </g>
    <defs>
        <clipPath id="clip0_3631_52094">
            <rect width="32" height="32" rx="6" fill="white"/>
        </clipPath>
    </defs>
</svg>
